# File created by Blade
# Date/Time:  Tue Jan 27 17:16:36 2015
#---------------------------------------------------------
:version 1.10
:name HOM
:units
  mass 1.0
  length 1.000000
  angle deg
:documentation
     Acclaim Skeleton File
:root
   axis xyz
   order TX TY TZ RX RY RZ
   position 0.000000 0.000000 0.000000
   orientation 0 0 0
:bonedata
   begin
      id 1
      name Spine_dum
      direction 0.000000 1.000000 0.000000
      length 7.539951
      axis 0.0 0.0 0.0 xyz
   end
   begin
      id 2
      name LeftUpLeg_dum
      direction 1.000000 0.000000 0.000000
      length 3.345476
      axis 0.0 0.0 0.0 xyz
   end
   begin
      id 3
      name RightUpLeg_dum
      direction -1.000000 0.000000 0.000000
      length 3.345476
      axis 0.0 0.0 0.0 xyz
   end
   begin
      id 4
      name Spine
      direction 0.000000 1.000000 0.000000
      length 0.000000
      axis 0.0 0.0 0.0 xyz
      dof rx ry rz
   end
   begin
      id 5
      name Spine_dum1
      direction 0.000000 1.000000 0.000000
      length 15.093809
      axis 0.0 0.0 0.0 xyz
   end
   begin
      id 6
      name Spine_dum2
      direction 0.000000 1.000000 0.000000
      length 9.738928
      axis 0.0 0.0 0.0 xyz
   end
   begin
      id 7
      name Spine_dum3
      direction 0.000000 1.000000 0.000000
      length 9.738928
      axis 0.0 0.0 0.0 xyz
   end
   begin
      id 8
      name Head
      direction 0.000000 1.000000 0.000000
      length 4.527550
      axis 0.0 0.0 0.0 xyz
      dof rx ry rz
   end
   begin
      id 9
      name LeftShoulder
      direction 1.000000 0.000000 0.000000
      length 7.084015
      axis 0.0 0.0 -90.0 xyz
      dof rx ry rz
   end
   begin
      id 10
      name LeftArm
      direction 1.000000 0.000000 0.000000
      length 10.259319
      axis 0.0 0.0 -90.0 xyz
      dof rx ry rz
   end
   begin
      id 11
      name LeftForeArm
      direction 1.000000 0.000000 0.000000
      length 9.896984
      axis 0.0 0.0 -90.0 xyz
      dof ry rz rx
   end
   begin
      id 12
      name LeftHand
      direction 0.000000 0.000000 0.000000
      length 0.000000
      axis 0.0 0.0 -90.0 xyz
      dof rx ry rz
   end
   begin
      id 13
      name LeftHand_dum1
      direction 0.000000 0.000000 0.000000
      length 0.000000
      axis 0.0 0.0 -90.0 xyz
   end
   begin
      id 14
      name LeftHand_dum2
      direction 1.000000 0.000000 0.000000
      length 3.937000
      axis 0.0 0.0 -90.0 xyz
   end
   begin
      id 15
      name LeftHandThumb1
      direction 0.000000 0.000000 1.000000
      length 3.937000
      axis 0.0 0.0 -90.0 xyz
      dof rx rz ry
   end
   begin
      id 16
      name RightShoulder
      direction -1.000000 0.000000 0.000000
      length 7.084015
      axis 0.0 0.0 90.0 xyz
      dof rx ry rz
   end
   begin
      id 17
      name RightArm
      direction -1.000000 0.000000 0.000000
      length 10.259319
      axis 0.0 0.0 90.0 xyz
      dof rx ry rz
   end
   begin
      id 18
      name RightForeArm
      direction -1.000000 0.000000 0.000000
      length 9.896984
      axis 0.0 0.0 90.0 xyz
      dof ry rz rx
   end
   begin
      id 19
      name RightHand
      direction 0.000000 0.000000 0.000000
      length 0.000000
      axis 0.0 0.0 90.0 xyz
      dof rx ry rz
   end
   begin
      id 20
      name RightHand_dum1
      direction 0.000000 0.000000 0.000000
      length 0.000000
      axis 0.0 0.0 90.0 xyz
   end
   begin
      id 21
      name RightHand_dum2
      direction -1.000000 0.000000 0.000000
      length 3.937000
      axis 0.0 0.0 90.0 xyz
   end
   begin
      id 22
      name RightHandThumb1
      direction 0.000000 0.000000 1.000000
      length 3.937000
      axis 0.0 0.0 90.0 xyz
      dof rx rz ry
   end
   begin
      id 23
      name LeftUpLeg
      direction 0.000000 -1.000000 0.000000
      length 19.114733
      axis 0.0 0.0 0.0 xyz
      dof rx ry rz
   end
   begin
      id 24
      name LeftLeg
      direction 0.000000 -1.000000 0.000000
      length 16.045604
      axis 0.0 0.0 0.0 xyz
      dof rx ry rz
   end
   begin
      id 25
      name LeftFoot
      direction 0.000000 -0.258819 0.965926
      length 5.543155
      axis 15.0 0.0 0.0 xyz
      dof rx ry rz
   end
   begin
      id 26
      name LeftToeBase
      direction 0.000000 0.000000 1.000000
      length 2.952750
      axis 0.0 0.0 0.0 xyz
      dof rx ry rz
   end
   begin
      id 27
      name RightUpLeg
      direction 0.000000 -1.000000 0.000000
      length 19.114733
      axis 0.0 0.0 0.0 xyz
      dof rx ry rz
   end
   begin
      id 28
      name RightLeg
      direction 0.000000 -1.000000 0.000000
      length 16.045604
      axis 0.0 0.0 0.0 xyz
      dof rx ry rz
   end
   begin
      id 29
      name RightFoot
      direction 0.000000 -0.258819 0.965926
      length 5.543155
      axis 15.0 0.0 0.0 xyz
      dof rx ry rz
   end
   begin
      id 30
      name RightToeBase
      direction 0.000000 0.000000 1.000000
      length 2.952750
      axis 0.0 0.0 0.0 xyz
      dof rx ry rz
   end
:hierarchy
   begin
      root Spine_dum LeftUpLeg_dum RightUpLeg_dum
      Spine_dum Spine
      LeftUpLeg_dum LeftUpLeg
      RightUpLeg_dum RightUpLeg
      Spine Spine_dum1 Spine_dum2 Spine_dum3
      Spine_dum1 Head
      Spine_dum2 LeftShoulder
      Spine_dum3 RightShoulder
      LeftShoulder LeftArm
      LeftArm LeftForeArm
      LeftForeArm LeftHand
      LeftHand LeftHand_dum1 LeftHand_dum2
      LeftHand_dum1 LeftHandThumb1
      RightShoulder RightArm
      RightArm RightForeArm
      RightForeArm RightHand
      RightHand RightHand_dum1 RightHand_dum2
      RightHand_dum1 RightHandThumb1
      LeftUpLeg LeftLeg
      LeftLeg LeftFoot
      LeftFoot LeftToeBase
      RightUpLeg RightLeg
      RightLeg RightFoot
      RightFoot RightToeBase
   end

# File created by Blade
# Date/Time:  Tue Jan 27 17:16:27 2015
# Frame Rate: 120.000 fps
#------------------------------------------------------
:FULLY-SPECIFIED
:DEGREES
2311
root -3.504856 35.830829 0.840466 5.106493 44.839410 6.137797
Spine 12.449098 1.206302 -4.435282
Head -8.590352 -4.460480 12.225510
LeftShoulder 6.331368 -20.298442 10.473202
LeftArm 14.985623 -16.893590 -39.436266
LeftForeArm -0.867667 -0.000000 55.712460
LeftHand -11.413176 -0.000000 52.088218
LeftHandThumb1 -26.253704 0.000000 33.147579
RightShoulder -2.277211 -13.686111 1.381258
RightArm 9.237853 -10.519404 51.557347
RightForeArm -169.744314 -0.000000 31.389073
RightHand -0.837103 -0.000000 4.570753
RightHandThumb1 -24.326973 -0.000000 -32.862282
LeftUpLeg -93.557593 26.900263 -27.616965
LeftLeg 112.829238 -0.000000 -0.000000
LeftFoot -10.026790 4.482266 -30.208801
LeftToeBase 16.804105 -0.000000 -0.000000
RightUpLeg -18.394158 -22.411977 5.504858
RightLeg 34.745145 -0.000000 -0.000000
RightFoot -26.168420 -25.280749 5.358374
RightToeBase 2.110350 -0.000000 -0.000000
2312
root -3.486467 35.860184 0.839382 5.275711 44.384152 6.159053
Spine 12.168098 1.245834 -4.501504
Head -8.456286 -4.193255 12.083951
LeftShoulder 6.189942 -20.117529 10.452569
LeftArm 14.811797 -16.720316 -39.179620
LeftForeArm -0.993162 -0.000000 55.721964
LeftHand -11.450597 -0.000000 52.396781
LeftHandThumb1 -26.253704 0.000000 33.147579
RightShoulder -2.309380 -13.734829 1.387780
RightArm 9.271303 -10.534314 51.596181
RightForeArm -169.842981 -0.000000 31.427877
RightHand -0.837575 -0.000000 4.777302
RightHandThumb1 -24.326973 -0.000000 -32.862282
LeftUpLeg -92.746446 27.344037 -25.901114
LeftLeg 112.371254 -0.000000 -0.000000
LeftFoot -10.128295 4.499805 -29.927084
LeftToeBase 16.679982 -0.000000 -0.000000
RightUpLeg -18.421211 -22.290617 5.486562
RightLeg 34.481197 -0.000000 -0.000000
RightFoot -26.004907 -25.007456 5.266101
RightToeBase 2.080221 -0.000000 -0.000000
2313
root -3.466966 35.891693 0.841134 5.424974 43.950779 6.235537
Spine 11.975556 1.293169 -4.625592
Head -8.378346 -3.914895 11.990328
LeftShoulder 6.051715 -20.025286 10.488788
LeftArm 14.659093 -16.534322 -39.004562
LeftForeArm -1.017007 -0.000000 55.687074
LeftHand -11.437696 -0.000000 52.666414
LeftHandThumb1 -26.253704 0.000000 33.147579
RightShoulder -2.340298 -13.771001 1.398474
RightArm 9.268114 -10.543586 51.674712
RightForeArm -169.892584 -0.000000 31.456789
RightHand -0.844575 -0.000000 4.923872
RightHandThumb1 -24.326973 -0.000000 -32.862282
LeftUpLeg -91.819952 27.792723 -24.158545
LeftLeg 111.892455 -0.000000 -0.000000
LeftFoot -10.153048 4.438169 -29.732201
LeftToeBase 16.693868 -0.000000 -0.000000
RightUpLeg -18.385027 -22.146646 5.402291
RightLeg 34.220307 -0.000000 -0.000000
RightFoot -25.973838 -24.627102 5.385631
RightToeBase 2.319395 -0.000000 -0.000000
2314
root -3.451636 35.922768 0.838215 5.647649 43.537710 6.320410
Spine 11.711834 1.330957 -4.749365
Head -8.319265 -3.669683 11.861482
LeftShoulder 5.952009 -19.952274 10.552723
LeftArm 14.459832 -16.348897 -38.858236
LeftForeArm -1.109803 -0.000000 55.649242
LeftHand -11.543159 -0.000000 52.834095
LeftHandThumb1 -26.253704 0.000000 33.147579
RightShoulder -2.389391 -13.786030 1.370431
RightArm 9.238520 -10.590740 51.805826
RightForeArm -169.872893 -0.000000 31.412010
RightHand -0.791476 -0.000000 5.039367
RightHandThumb1 -24.326973 -0.000000 -32.862282
LeftUpLeg -90.891757 28.162035 -22.401037
LeftLeg 111.423758 -0.000000 -0.000000
LeftFoot -10.162011 4.319387 -29.800548
LeftToeBase 16.746819 -0.000000 -0.000000
RightUpLeg -18.438387 -21.982206 5.338418
RightLeg 33.968631 -0.000000 -0.000000
RightFoot -25.777464 -24.368463 5.339644
RightToeBase 2.206903 -0.000000 -0.000000
